<?xml version="1.0" encoding="utf-8"?>
<!-- Generator: Adobe Illustrator 15.1.0, SVG Export Plug-In . SVG Version: 6.00 Build 0)  -->
<!DOCTYPE svg PUBLIC "-//W3C//DTD SVG 1.1//EN" "http://www.w3.org/Graphics/SVG/1.1/DTD/svg11.dtd">
<svg version="1.1" id="Слой_1" xmlns="http://www.w3.org/2000/svg" xmlns:xlink="http://www.w3.org/1999/xlink" x="0px" y="0px"
	 width="325px" height="382.637px" viewBox="0 0 325 382.637" enable-background="new 0 0 325 382.637" xml:space="preserve">
<g>
	<path fill="#006865" d="M118.105,37.039l3.764-26.914l-4.232-0.468c-1.607-0.182-3.012-0.879-4.221-1.772
		c-1.237-0.919-2.182-2.073-2.878-3.413c-0.696-1.374-1.056-2.854-1.056-4.472l0,0h34.351l0,0c-0.022,1.619-0.382,3.099-1.079,4.472
		c-0.696,1.346-1.635,2.497-2.875,3.413c-1.212,0.895-2.616,1.604-4.221,1.772l-4.581,0.468l4.182,26.93l-8.61-1.733L118.105,37.039
		z"/>
	<polygon fill="#006865" points="126.656,27.064 171.631,39.898 162.55,48.959 126.656,38.714 90.762,48.959 81.685,39.898 	"/>
	<path fill="#006865" d="M97.528,153.804l-1.962-0.312v-24.626v-7.769V95.814l1.912-0.358c1.223-0.209,2.31-0.666,3.257-1.374
		c0.947-0.705,1.688-1.605,2.24-2.656c0.535-1.05,0.811-2.188,0.828-3.43H77.5c0.02,1.246,0.295,2.376,0.827,3.43
		c0.535,1.051,1.257,1.951,2.204,2.656c0.931,0.708,2.015,1.167,3.241,1.374l1.912,0.358v57.679l-1.965,0.312
		c-1.204,0.206-2.273,0.674-3.204,1.376c-0.931,0.705-1.652,1.588-2.19,2.636c-0.535,1.031-0.805,2.173-0.828,3.389h26.3
		c-0.017-1.221-0.295-2.357-0.828-3.389c-0.549-1.047-1.292-1.931-2.223-2.636C99.804,154.481,98.737,154.013,97.528,153.804
		L97.528,153.804z M169.6,153.804l-1.965-0.312V95.814l1.912-0.358c1.217-0.231,2.307-0.675,3.238-1.374
		c0.943-0.71,1.672-1.608,2.203-2.656c0.535-1.05,0.809-2.188,0.828-3.43h-8.178h-9.89h-8.231l0,0
		c0.017,1.246,0.298,2.374,0.841,3.43c0.538,1.048,1.276,1.951,2.221,2.656c0.947,0.708,2.04,1.145,3.257,1.374l1.912,0.358v25.284
		h-26.693v7.769h26.693v24.626l-1.965,0.312c-1.223,0.189-2.304,0.674-3.237,1.376c-0.945,0.713-1.669,1.588-2.204,2.636
		c-0.532,1.031-0.808,2.173-0.828,3.389l0,0h26.297c-0.017-1.221-0.301-2.357-0.826-3.389c-0.529-1.042-1.258-1.931-2.188-2.636
		C171.873,154.481,170.803,154.013,169.6,153.804L169.6,153.804z M122.942,121.098v7.769H98.333v-1.812
		c0-1.115,0.301-2.115,0.828-3.012c0.524-0.896,1.24-1.61,2.137-2.141c0.892-0.523,1.897-0.808,2.995-0.808L122.942,121.098
		L122.942,121.098z"/>
	<path fill="#006865" d="M126.656,200.643l-7.774-22.581l-0.153-115.048L98.308,68.84l0,0c-0.204,2.084-0.87,3.92-1.97,5.556
		c-1.125,1.635-2.566,2.938-4.311,3.875c-1.767,0.964-3.742,1.433-5.874,1.458h-0.067V62.214c0.022-1.012,0.371-1.836,1.056-2.513
		c0.668-0.661,1.577-0.747,2.566-1.025l35.253-10.028l1.691,135.074l1.694-135.125L163.6,58.676
		c0.988,0.281,1.896,0.362,2.564,1.025c0.682,0.677,1.031,1.501,1.057,2.513v17.515l0,0c-2.135-0.021-4.104-0.493-5.874-1.458
		c-1.789-0.938-3.232-2.24-4.38-3.875c-1.123-1.636-1.812-3.472-2.042-5.556l0,0l-20.349-5.843l-0.153,115.064L126.656,200.643z"/>
</g>
<g>
	<path fill="#006865" d="M267.74,37.039l3.766-26.914l-4.232-0.468c-1.604-0.182-3.018-0.879-4.223-1.772
		c-1.24-0.919-2.182-2.073-2.877-3.413c-0.695-1.374-1.051-2.854-1.051-4.472l0,0h34.35l0,0c-0.024,1.619-0.387,3.099-1.084,4.472
		c-0.693,1.346-1.635,2.497-2.875,3.413c-1.209,0.895-2.613,1.604-4.221,1.772l-4.588,0.471l4.186,26.93l-8.604-1.732L267.74,37.039
		z"/>
	<polygon fill="#006865" points="276.295,27.064 321.268,39.898 312.189,48.959 276.295,38.714 240.4,48.959 231.318,39.898 	"/>
	<path fill="#006865" d="M247.166,153.804l-1.965-0.312v-24.626v-7.769V95.814l1.912-0.358c1.227-0.209,2.316-0.666,3.264-1.374
		c0.947-0.705,1.682-1.605,2.23-2.656c0.535-1.05,0.813-2.188,0.83-3.43h-26.304c0.023,1.246,0.296,2.376,0.83,3.43
		c0.533,1.051,1.252,1.951,2.199,2.656c0.928,0.708,2.019,1.167,3.237,1.374l1.91,0.358v57.679l-1.961,0.312
		c-1.203,0.206-2.272,0.674-3.205,1.376c-0.928,0.705-1.651,1.588-2.184,2.636c-0.537,1.031-0.809,2.173-0.83,3.389h26.303
		c-0.018-1.221-0.299-2.357-0.83-3.389c-0.549-1.047-1.285-1.931-2.215-2.636C249.439,154.481,248.369,154.013,247.166,153.804
		L247.166,153.804z M319.232,153.804l-1.961-0.312V95.814l1.91-0.358c1.219-0.231,2.311-0.675,3.241-1.374
		c0.941-0.71,1.673-1.608,2.201-2.656c0.535-1.05,0.812-2.188,0.83-3.43h-8.183h-9.885h-8.234l0,0c0.021,1.246,0.3,2.374,0.843,3.43
		c0.541,1.048,1.274,1.951,2.223,2.656c0.941,0.708,2.035,1.145,3.259,1.374l1.911,0.358v25.284h-26.69v7.769h26.69v24.626
		l-1.965,0.312c-1.229,0.189-2.312,0.674-3.246,1.376c-0.94,0.713-1.666,1.588-2.2,2.636c-0.533,1.031-0.808,2.173-0.824,3.389l0,0
		h26.299c-0.02-1.221-0.303-2.357-0.83-3.389c-0.525-1.042-1.256-1.931-2.188-2.636
		C321.506,154.481,320.436,154.013,319.232,153.804L319.232,153.804z M272.578,121.098v7.769h-24.609v-1.812
		c0-1.115,0.299-2.115,0.83-3.012c0.521-0.896,1.24-1.61,2.135-2.141c0.892-0.523,1.896-0.808,3-0.808L272.578,121.098
		L272.578,121.098z"/>
	<path fill="#006865" d="M276.295,200.643l-7.777-22.581l-0.158-115.048l-20.416,5.826l0,0c-0.204,2.084-0.877,3.92-1.969,5.556
		c-1.129,1.635-2.57,2.938-4.315,3.875c-1.769,0.964-3.742,1.433-5.871,1.458h-0.07V62.214c0.025-1.012,0.373-1.836,1.06-2.513
		c0.666-0.661,1.58-0.747,2.565-1.025l35.261-10.022l1.694,135.071L277.986,48.6l35.256,10.078c0.988,0.282,1.895,0.362,2.566,1.025
		c0.68,0.677,1.03,1.502,1.053,2.514v17.515l0,0c-2.135-0.021-4.104-0.493-5.877-1.457c-1.789-0.938-3.232-2.239-4.377-3.876
		c-1.129-1.635-1.814-3.472-2.043-5.556l0,0l-20.349-5.846l-0.153,115.064L276.295,200.643z"/>
</g>
<g>
	<path fill="#006865" d="M40.157,219.03l3.761-26.91l-4.232-0.475c-1.607-0.178-3.015-0.875-4.221-1.776
		c-1.237-0.914-2.179-2.067-2.875-3.405c-0.697-1.371-1.056-2.854-1.056-4.476l0,0h34.353l0,0c-0.022,1.622-0.382,3.104-1.078,4.476
		c-0.697,1.343-1.641,2.491-2.878,3.405c-1.209,0.901-2.616,1.609-4.221,1.776l-4.583,0.475l4.185,26.928l-8.607-1.729
		L40.157,219.03z"/>
	<polygon fill="#006865" points="48.708,209.055 93.68,221.889 84.602,230.947 48.708,220.707 12.814,230.947 3.73,221.889 	"/>
	<path fill="#006865" d="M19.579,335.791l-1.964-0.312v-24.626v-7.77v-25.282l1.912-0.362c1.223-0.206,2.31-0.669,3.257-1.376
		c0.947-0.708,1.686-1.6,2.234-2.652c0.535-1.049,0.811-2.189,0.828-3.428H-0.452c0.017,1.242,0.295,2.379,0.828,3.428
		c0.535,1.054,1.256,1.944,2.204,2.652c0.931,0.707,2.015,1.17,3.235,1.376l1.914,0.362v57.678l-1.961,0.312
		c-1.207,0.204-2.277,0.67-3.205,1.371c-0.931,0.708-1.655,1.595-2.19,2.643c-0.535,1.031-0.811,2.174-0.828,3.389h26.298
		c-0.017-1.221-0.295-2.356-0.828-3.389c-0.549-1.048-1.288-1.935-2.221-2.643C21.853,336.467,20.783,336.001,19.579,335.791
		L19.579,335.791z M91.648,335.791l-1.964-0.312v-57.678l1.912-0.362c1.22-0.229,2.307-0.674,3.24-1.376
		c0.945-0.708,1.672-1.604,2.204-2.652c0.535-1.049,0.811-2.189,0.828-3.428h-8.187h-9.883h-8.234l0,0
		c0.017,1.242,0.295,2.374,0.844,3.428c0.538,1.048,1.273,1.944,2.221,2.652c0.947,0.707,2.034,1.147,3.257,1.376l1.912,0.362
		v25.282H53.105v7.77h26.693v24.626l-1.962,0.312c-1.226,0.186-2.307,0.67-3.238,1.371c-0.944,0.715-1.669,1.595-2.201,2.64
		c-0.532,1.034-0.811,2.177-0.828,3.392l0,0H97.87c-0.017-1.221-0.304-2.356-0.828-3.392c-0.529-1.039-1.257-1.932-2.19-2.64
		C93.922,336.467,92.852,336.001,91.648,335.791L91.648,335.791z M44.991,303.089v7.769H20.382v-1.812
		c0-1.12,0.301-2.112,0.828-3.016c0.524-0.892,1.24-1.604,2.137-2.14c0.892-0.52,1.897-0.803,2.998-0.803L44.991,303.089
		L44.991,303.089z"/>
	<path fill="#006865" d="M48.708,382.637l-7.777-22.586l-0.153-115.049l-20.421,5.829l0,0c-0.204,2.084-0.873,3.923-1.97,5.556
		c-1.125,1.633-2.566,2.938-4.313,3.867c-1.764,0.97-3.742,1.433-5.871,1.46h-0.07v-17.509c0.025-1.01,0.376-1.834,1.056-2.515
		c0.669-0.656,1.58-0.747,2.566-1.02l35.253-10.031l1.694,135.065l1.691-135.115l35.253,10.081c0.992,0.277,1.897,0.361,2.569,1.02
		c0.68,0.681,1.031,1.505,1.053,2.515v17.515l0,0c-2.132-0.025-4.104-0.49-5.871-1.46c-1.792-0.931-3.238-2.234-4.383-3.867
		c-1.125-1.633-1.814-3.472-2.042-5.557l0,0l-20.349-5.847L56.47,360.055L48.708,382.637z"/>
</g>
<g>
	<path fill="#006865" d="M189.793,219.03l3.764-26.91l-4.231-0.475c-1.607-0.178-3.017-0.875-4.222-1.776
		c-1.239-0.914-2.182-2.067-2.879-3.405c-0.697-1.371-1.057-2.854-1.057-4.476l0,0h34.352l0,0c-0.022,1.622-0.383,3.104-1.078,4.476
		c-0.696,1.343-1.637,2.491-2.877,3.405c-1.215,0.901-2.614,1.609-4.221,1.776l-4.58,0.475l4.182,26.928l-8.608-1.729
		L189.793,219.03z"/>
	<polygon fill="#006865" points="198.344,209.055 243.318,221.889 234.238,230.947 198.344,220.707 162.45,230.947 153.372,221.889 
			"/>
	<path fill="#006865" d="M169.215,335.791l-1.961-0.312v-24.626v-7.77v-25.282l1.91-0.362c1.227-0.206,2.311-0.669,3.258-1.376
		c0.947-0.708,1.689-1.6,2.238-2.652c0.535-1.049,0.811-2.189,0.826-3.428h-26.299c0.019,1.242,0.295,2.379,0.827,3.428
		c0.535,1.054,1.257,1.944,2.204,2.652c0.931,0.707,2.015,1.17,3.241,1.376l1.911,0.362v57.678l-1.964,0.312
		c-1.207,0.204-2.273,0.67-3.204,1.371c-0.931,0.708-1.655,1.595-2.19,2.643c-0.535,1.031-0.808,2.174-0.828,3.389h26.3
		c-0.021-1.221-0.295-2.356-0.828-3.389c-0.549-1.048-1.289-1.935-2.221-2.643C171.492,336.467,170.424,336.001,169.215,335.791
		L169.215,335.791z M241.285,335.791l-1.965-0.312v-57.678l1.91-0.362c1.221-0.229,2.311-0.674,3.237-1.376
		c0.941-0.708,1.673-1.604,2.205-2.652c0.529-1.049,0.808-2.189,0.824-3.428h-8.179h-9.887h-8.229l0,0
		c0.019,1.242,0.295,2.374,0.844,3.428c0.535,1.048,1.277,1.944,2.222,2.652c0.946,0.707,2.035,1.147,3.256,1.376l1.91,0.362v25.282
		h-26.689v7.77h26.689v24.626l-1.965,0.312c-1.226,0.186-2.308,0.67-3.234,1.371c-0.947,0.715-1.668,1.595-2.207,2.64
		c-0.531,1.034-0.807,2.177-0.824,3.392l0,0H247.5c-0.016-1.221-0.303-2.356-0.824-3.392c-0.531-1.039-1.256-1.932-2.189-2.64
		C243.559,336.467,242.488,336.001,241.285,335.791L241.285,335.791z M194.629,303.089v7.769H170.02v-1.812
		c0-1.12,0.299-2.112,0.828-3.016c0.523-0.892,1.24-1.604,2.137-2.14c0.894-0.52,1.898-0.803,2.996-0.803L194.629,303.089
		L194.629,303.089z"/>
	<path fill="#006865" d="M198.344,382.637l-7.773-22.586l-0.153-115.049l-20.42,5.829l0,0c-0.205,2.084-0.873,3.923-1.972,5.556
		c-1.125,1.633-2.565,2.938-4.311,3.867c-1.767,0.97-3.739,1.433-5.874,1.46h-0.067v-17.509c0.022-1.01,0.371-1.834,1.056-2.515
		c0.668-0.656,1.577-0.747,2.566-1.02l35.254-10.031l1.69,135.065l1.693-135.115l35.252,10.081c0.987,0.277,1.896,0.361,2.565,1.02
		c0.678,0.681,1.029,1.505,1.055,2.515v17.515l0,0c-2.135-0.025-4.104-0.49-5.877-1.46c-1.788-0.931-3.231-2.234-4.381-3.867
		c-1.119-1.633-1.811-3.472-2.039-5.557l0,0l-20.35-5.847l-0.154,115.065L198.344,382.637z"/>
</g>
</svg>
