<?xml version="1.0" encoding="utf-8"?>
<!-- Generator: Adobe Illustrator 15.1.0, SVG Export Plug-In . SVG Version: 6.00 Build 0)  -->
<!DOCTYPE svg PUBLIC "-//W3C//DTD SVG 1.1//EN" "http://www.w3.org/Graphics/SVG/1.1/DTD/svg11.dtd">
<svg version="1.1" id="Слой_1" xmlns="http://www.w3.org/2000/svg" xmlns:xlink="http://www.w3.org/1999/xlink" x="0px" y="0px"
	 width="269px" height="183.051px" viewBox="0 0 269 183.051" enable-background="new 0 0 269 183.051" xml:space="preserve">
<polygon fill="none" stroke="#03635F" stroke-width="1.7243" stroke-miterlimit="22.9256" points="40.5,1.065 60.221,12.78 
	79.938,24.492 79.938,47.922 79.938,71.356 60.221,83.067 40.5,94.782 20.78,83.067 1.063,71.356 1.063,47.922 1.063,24.492 
	20.78,12.78 "/>
<path fill="#03635F" d="M36.746,33.465c-0.008-0.328-0.119-0.599-0.336-0.821c-0.214-0.222-0.493-0.333-0.824-0.336H11.961
	c-0.331,0.004-0.609,0.115-0.823,0.336c-0.217,0.218-0.331,0.489-0.336,0.821v5.734h0.022c0.679-0.008,1.313-0.161,1.876-0.477
	c0.556-0.308,1.02-0.735,1.379-1.272c0.351-0.533,0.564-1.137,0.63-1.814l0,0h6.958v24.6l-0.834,0.152
	c-0.521,0.09-0.981,0.288-1.378,0.579c-0.402,0.3-0.712,0.673-0.94,1.113c-0.226,0.447-0.345,0.931-0.345,1.461l0,0h11.212l0,0
	c-0.006-0.53-0.125-1.009-0.351-1.461c-0.226-0.439-0.533-0.813-0.938-1.113c-0.396-0.295-0.858-0.488-1.379-0.579L25.9,60.236
	v-24.6h6.917l0,0c0.074,0.677,0.292,1.281,0.651,1.814c0.367,0.538,0.831,0.965,1.402,1.272c0.566,0.313,1.197,0.468,1.877,0.477
	l0,0L36.746,33.465L36.746,33.465z M47.601,60.388l-0.837-0.131V49.773v-3.309V35.702l0.813-0.156
	c0.521-0.086,0.981-0.288,1.388-0.583c0.404-0.304,0.717-0.686,0.951-1.133c0.229-0.442,0.347-0.932,0.351-1.457H39.069
	c0.008,0.525,0.127,1.014,0.353,1.457c0.228,0.448,0.534,0.833,0.94,1.133c0.394,0.299,0.858,0.497,1.379,0.583l0.813,0.152v24.559
	l-0.835,0.131c-0.515,0.09-0.969,0.288-1.362,0.587c-0.396,0.304-0.702,0.673-0.932,1.121c-0.226,0.439-0.345,0.923-0.353,1.444
	h11.198c-0.006-0.521-0.123-1.005-0.351-1.444c-0.234-0.448-0.548-0.821-0.946-1.121C48.568,60.676,48.112,60.479,47.601,60.388
	L47.601,60.388z M66.935,60.388c0.513,0.09,0.968,0.288,1.364,0.587c0.395,0.304,0.71,0.673,0.932,1.121
	c0.226,0.439,0.343,0.923,0.351,1.444H58.384l0,0c0.006-0.521,0.123-1.005,0.351-1.444c0.226-0.448,0.536-0.821,0.938-1.121
	c0.396-0.304,0.858-0.497,1.379-0.587l0.837-0.131V49.773H47.275v-0.772c0.006-0.48,0.123-0.903,0.351-1.281
	c0.217-0.386,0.527-0.685,0.909-0.911c0.384-0.217,0.806-0.336,1.276-0.345H61.89V35.698l-0.816-0.152
	c-0.521-0.086-0.981-0.288-1.384-0.583c-0.404-0.304-0.72-0.686-0.948-1.133c-0.234-0.442-0.351-0.932-0.357-1.457l0,0h3.503h4.208
	h3.486c-0.008,0.525-0.127,1.014-0.351,1.457c-0.228,0.448-0.538,0.833-0.94,1.133c-0.396,0.299-0.857,0.497-1.379,0.583
	l-0.815,0.152v24.559L66.935,60.388z"/>
<polygon fill="none" stroke="#03635F" stroke-width="1.7243" stroke-miterlimit="22.9256" points="166.176,1.065 185.896,12.78 
	205.613,24.492 205.613,47.922 205.613,71.356 185.896,83.067 166.176,94.782 146.456,83.067 126.738,71.356 126.738,47.922 
	126.738,24.492 146.456,12.78 "/>
<path fill="#03635F" d="M162.424,33.465c-0.006-0.328-0.119-0.599-0.339-0.821c-0.214-0.222-0.492-0.333-0.823-0.336h-23.625
	c-0.33,0.004-0.61,0.115-0.823,0.336c-0.22,0.218-0.328,0.489-0.339,0.821v5.734h0.023c0.682-0.008,1.313-0.161,1.877-0.477
	c0.557-0.308,1.02-0.735,1.379-1.272c0.351-0.533,0.564-1.137,0.631-1.814l0,0h6.961v24.6l-0.837,0.152
	c-0.521,0.09-0.98,0.288-1.379,0.579c-0.402,0.3-0.71,0.673-0.938,1.113c-0.228,0.447-0.345,0.931-0.345,1.461l0,0h11.214l0,0
	c-0.009-0.53-0.128-1.009-0.354-1.461c-0.229-0.439-0.534-0.813-0.938-1.113c-0.396-0.295-0.858-0.488-1.38-0.579l-0.813-0.152
	v-24.6h6.916l0,0c0.075,0.677,0.294,1.281,0.653,1.814c0.365,0.538,0.829,0.965,1.4,1.272c0.566,0.313,1.196,0.468,1.88,0.477l0,0
	L162.424,33.465L162.424,33.465z M173.271,60.388l-0.833-0.131V49.773v-3.309V35.702l0.813-0.152
	c0.521-0.09,0.985-0.288,1.387-0.587c0.4-0.3,0.719-0.682,0.953-1.129c0.223-0.446,0.345-0.931,0.354-1.46h-11.197
	c0.004,0.529,0.125,1.014,0.35,1.46c0.229,0.448,0.535,0.83,0.939,1.129c0.398,0.299,0.858,0.497,1.38,0.587l0.813,0.152v24.56
	l-0.831,0.131c-0.514,0.086-0.971,0.288-1.367,0.587c-0.396,0.3-0.701,0.673-0.932,1.121c-0.225,0.439-0.345,0.919-0.35,1.445
	h11.197c-0.009-0.521-0.128-1.005-0.354-1.445c-0.234-0.448-0.55-0.821-0.949-1.121C174.241,60.676,173.782,60.479,173.271,60.388
	L173.271,60.388z M192.608,60.388c0.513,0.09,0.971,0.288,1.363,0.587c0.397,0.304,0.713,0.673,0.931,1.121
	c0.227,0.439,0.346,0.923,0.354,1.444h-11.197l0,0c0.007-0.521,0.127-1.005,0.352-1.444c0.223-0.448,0.534-0.821,0.94-1.121
	c0.394-0.304,0.854-0.497,1.372-0.587l0.835-0.131V49.773h-14.614v-0.772c0.01-0.48,0.126-0.903,0.349-1.281
	c0.22-0.386,0.53-0.685,0.914-0.911c0.386-0.217,0.805-0.336,1.274-0.345h12.077V35.698l-0.814-0.152
	c-0.52-0.086-0.986-0.288-1.386-0.583c-0.4-0.304-0.721-0.686-0.945-1.133c-0.231-0.442-0.353-0.932-0.36-1.457l0,0h3.506h4.207
	h3.485c-0.011,0.525-0.125,1.014-0.354,1.457c-0.223,0.448-0.536,0.833-0.936,1.133c-0.396,0.299-0.855,0.497-1.377,0.583
	l-0.819,0.152v24.559L192.608,60.388z"/>
<polygon fill="none" stroke="#03635F" stroke-width="1.7243" stroke-miterlimit="22.9256" points="103.339,88.231 123.058,99.946 
	142.775,111.661 142.775,135.093 142.775,158.519 123.058,170.233 103.339,181.953 83.621,170.233 63.901,158.519 63.901,135.093 
	63.901,111.661 83.621,99.946 "/>
<path fill="#03635F" d="M99.584,120.631c-0.006-0.329-0.117-0.604-0.337-0.825c-0.213-0.218-0.49-0.328-0.82-0.337h-23.63
	c-0.331,0.009-0.61,0.119-0.821,0.337c-0.221,0.217-0.33,0.488-0.338,0.825v5.734h0.021c0.683-0.004,1.313-0.159,1.879-0.479
	c0.557-0.305,1.018-0.731,1.377-1.27c0.351-0.533,0.566-1.133,0.63-1.814l0,0h6.959v24.604l-0.835,0.147
	c-0.521,0.091-0.983,0.292-1.377,0.58c-0.404,0.303-0.71,0.677-0.94,1.116c-0.228,0.446-0.345,0.927-0.345,1.457l0,0h11.21l0,0
	c-0.006-0.53-0.124-1.011-0.351-1.457c-0.229-0.439-0.536-0.817-0.94-1.116c-0.394-0.293-0.855-0.489-1.377-0.58l-0.815-0.147
	v-24.608h6.915l0,0c0.074,0.682,0.295,1.285,0.655,1.818c0.366,0.538,0.829,0.961,1.4,1.27c0.564,0.312,1.194,0.472,1.877,0.479l0,0
	L99.584,120.631L99.584,120.631z M110.438,147.554l-0.835-0.131v-10.484v-3.308v-10.764l0.813-0.151
	c0.521-0.09,0.983-0.292,1.387-0.587c0.402-0.295,0.719-0.682,0.955-1.129c0.226-0.448,0.345-0.933,0.351-1.458H101.91
	c0.006,0.525,0.123,1.01,0.351,1.458c0.226,0.447,0.536,0.834,0.938,1.129c0.396,0.3,0.858,0.497,1.379,0.587l0.813,0.151v24.56
	l-0.833,0.132c-0.513,0.09-0.968,0.291-1.364,0.587c-0.394,0.304-0.704,0.678-0.93,1.125c-0.228,0.438-0.345,0.919-0.351,1.444
	h11.198c-0.006-0.521-0.127-1.006-0.351-1.444c-0.236-0.447-0.552-0.825-0.946-1.125
	C111.405,147.841,110.951,147.645,110.438,147.554L110.438,147.554z M129.775,147.554c0.513,0.091,0.967,0.292,1.363,0.588
	c0.396,0.304,0.712,0.678,0.932,1.125c0.228,0.438,0.345,0.919,0.351,1.444h-11.199l0,0c0.006-0.521,0.125-1.006,0.351-1.444
	c0.229-0.447,0.536-0.825,0.94-1.125c0.396-0.301,0.86-0.497,1.379-0.588l0.835-0.131v-10.484h-14.615v-0.771
	c0.006-0.476,0.125-0.902,0.351-1.28c0.222-0.382,0.528-0.682,0.911-0.91c0.382-0.219,0.807-0.337,1.274-0.346h12.079v-10.764
	l-0.813-0.151c-0.521-0.09-0.983-0.292-1.385-0.587c-0.402-0.3-0.719-0.682-0.947-1.129c-0.234-0.448-0.351-0.933-0.359-1.458l0,0
	h3.503h4.209h3.483c-0.006,0.525-0.123,1.01-0.351,1.458c-0.226,0.447-0.534,0.834-0.94,1.129c-0.394,0.3-0.856,0.497-1.377,0.587
	l-0.815,0.151v24.56L129.775,147.554z"/>
<polygon fill="none" stroke="#03635F" stroke-width="1.7243" stroke-miterlimit="22.9256" points="229.01,88.231 248.729,99.946 
	268.451,111.661 268.451,135.093 268.451,158.519 248.729,170.233 229.01,181.953 209.29,170.233 189.574,158.519 189.574,135.093 
	189.574,111.661 209.29,99.946 "/>
<path fill="#03635F" d="M225.254,120.631c-0.005-0.329-0.115-0.604-0.333-0.825c-0.214-0.218-0.49-0.328-0.825-0.337h-23.627
	c-0.328,0.009-0.607,0.119-0.821,0.337c-0.22,0.217-0.328,0.488-0.336,0.825v5.734h0.021c0.686-0.004,1.313-0.159,1.882-0.479
	c0.556-0.305,1.017-0.731,1.378-1.27c0.348-0.533,0.563-1.133,0.63-1.814l0,0h6.962v24.604l-0.834,0.147
	c-0.521,0.091-0.985,0.292-1.379,0.58c-0.402,0.303-0.711,0.677-0.937,1.116c-0.228,0.446-0.345,0.927-0.345,1.457l0,0H217.9l0,0
	c-0.009-0.53-0.124-1.011-0.354-1.457c-0.224-0.439-0.533-0.817-0.935-1.116c-0.396-0.293-0.857-0.489-1.378-0.58l-0.82-0.147
	v-24.608h6.918l0,0c0.074,0.682,0.294,1.285,0.654,1.818c0.367,0.538,0.831,0.961,1.399,1.27c0.568,0.312,1.194,0.472,1.878,0.479
	l0,0v-5.739h-0.01V120.631z M236.111,147.554l-0.835-0.131v-10.484v-3.308v-10.764l0.813-0.151c0.521-0.09,0.983-0.292,1.388-0.587
	c0.399-0.3,0.72-0.682,0.952-1.129c0.224-0.448,0.345-0.933,0.354-1.458h-11.199c0.009,0.525,0.126,1.01,0.354,1.458
	c0.224,0.447,0.533,0.834,0.937,1.129c0.396,0.3,0.855,0.497,1.377,0.587l0.814,0.151v24.56l-0.833,0.132
	c-0.513,0.09-0.969,0.291-1.36,0.587c-0.396,0.304-0.709,0.678-0.931,1.125c-0.229,0.438-0.345,0.919-0.354,1.444h11.199
	c-0.009-0.521-0.131-1.006-0.354-1.444c-0.234-0.447-0.555-0.825-0.943-1.125C237.076,147.841,236.625,147.645,236.111,147.554
	L236.111,147.554z M255.449,147.554c0.514,0.091,0.964,0.292,1.362,0.588c0.395,0.304,0.71,0.678,0.928,1.125
	c0.224,0.438,0.345,0.919,0.349,1.444h-11.197l0,0c0.009-0.521,0.132-1.006,0.354-1.444c0.229-0.447,0.537-0.825,0.938-1.125
	c0.396-0.301,0.856-0.497,1.378-0.588l0.831-0.131v-10.484h-14.612v-0.771c0.01-0.476,0.125-0.902,0.353-1.28
	c0.22-0.382,0.525-0.682,0.909-0.91c0.384-0.219,0.811-0.337,1.275-0.346h12.075v-10.764l-0.813-0.151
	c-0.521-0.09-0.981-0.292-1.388-0.587c-0.4-0.3-0.718-0.682-0.943-1.129c-0.232-0.448-0.353-0.933-0.361-1.458l0,0h3.505h4.212h3.48
	c-0.005,0.525-0.123,1.01-0.35,1.458c-0.227,0.447-0.537,0.834-0.939,1.129c-0.395,0.3-0.855,0.497-1.376,0.587l-0.815,0.151v24.56
	L255.449,147.554z"/>
</svg>
