<?xml version="1.0" encoding="utf-8"?>
<!-- Generator: Adobe Illustrator 15.1.0, SVG Export Plug-In . SVG Version: 6.00 Build 0)  -->
<!DOCTYPE svg PUBLIC "-//W3C//DTD SVG 1.1//EN" "http://www.w3.org/Graphics/SVG/1.1/DTD/svg11.dtd">
<svg version="1.1" id="Слой_1" xmlns="http://www.w3.org/2000/svg" xmlns:xlink="http://www.w3.org/1999/xlink" x="0px" y="0px"
	 width="164.727px" height="82.877px" viewBox="0 0 164.727 82.877" enable-background="new 0 0 164.727 82.877"
	 xml:space="preserve">
<g>
	<polygon fill-rule="evenodd" clip-rule="evenodd" fill="#00534F" points="141.621,28.245 134.152,30.376 134.152,35.122 
		134.152,41.223 141.621,46.211 149.088,41.223 149.088,35.122 149.088,30.376 	"/>
	<polygon fill-rule="evenodd" clip-rule="evenodd" fill="#00534F" points="141.621,17.965 134.152,15.834 134.152,11.089 
		134.152,4.987 141.621,0 149.088,4.987 149.088,11.089 149.088,15.834 	"/>
	<polygon fill-rule="evenodd" clip-rule="evenodd" fill="#00534F" points="136.482,23.105 134.35,15.637 129.605,15.637 
		123.504,15.637 118.516,23.105 123.504,30.573 129.605,30.573 134.35,30.573 	"/>
	<polygon fill-rule="evenodd" clip-rule="evenodd" fill="#00534F" points="146.76,23.105 148.893,15.637 153.637,15.637 
		159.738,15.637 164.727,23.105 159.738,30.573 153.637,30.573 148.893,30.573 	"/>
</g>
<g>
	<polygon fill-rule="evenodd" clip-rule="evenodd" fill="#00534F" points="81.406,28.245 88.875,30.376 88.875,35.122 
		88.875,41.223 81.406,46.211 73.938,41.223 73.938,35.122 73.938,30.376 	"/>
	<polygon fill-rule="evenodd" clip-rule="evenodd" fill="#00534F" points="81.406,17.965 88.875,15.834 88.875,11.089 88.875,4.987 
		81.406,0 73.938,4.987 73.938,11.089 73.938,15.834 	"/>
	<polygon fill-rule="evenodd" clip-rule="evenodd" fill="#00534F" points="86.547,23.105 88.678,15.637 93.422,15.637 
		99.523,15.637 104.512,23.105 99.523,30.573 93.422,30.573 88.678,30.573 	"/>
	<polygon fill-rule="evenodd" clip-rule="evenodd" fill="#00534F" points="76.267,23.105 74.135,15.637 69.39,15.637 63.289,15.637 
		58.301,23.105 63.289,30.573 69.39,30.573 74.135,30.573 	"/>
</g>
<g>
	<polygon fill-rule="evenodd" clip-rule="evenodd" fill="#00534F" points="23.129,28.245 15.661,30.376 15.661,35.122 
		15.661,41.223 23.129,46.211 30.597,41.223 30.597,35.122 30.597,30.376 	"/>
	<polygon fill-rule="evenodd" clip-rule="evenodd" fill="#00534F" points="23.129,17.965 15.661,15.834 15.661,11.089 15.661,4.987 
		23.129,0 30.597,4.987 30.597,11.089 30.597,15.834 	"/>
	<polygon fill-rule="evenodd" clip-rule="evenodd" fill="#00534F" points="17.989,23.105 15.858,15.637 11.113,15.637 5.011,15.637 
		0.023,23.105 5.011,30.573 11.113,30.573 15.858,30.573 	"/>
	<polygon fill-rule="evenodd" clip-rule="evenodd" fill="#00534F" points="28.268,23.105 30.4,15.637 35.145,15.637 41.247,15.637 
		46.234,23.105 41.247,30.573 35.145,30.573 30.4,30.573 	"/>
</g>
<g>
	<polygon fill-rule="evenodd" clip-rule="evenodd" fill="#00534F" points="112.482,64.912 105.014,67.043 105.014,71.789 
		105.014,77.891 112.482,82.877 119.951,77.891 119.951,71.789 119.951,67.043 	"/>
	<polygon fill-rule="evenodd" clip-rule="evenodd" fill="#00534F" points="112.482,54.633 105.014,52.502 105.014,47.756 
		105.014,41.655 112.482,36.667 119.951,41.655 119.951,47.756 119.951,52.502 	"/>
	<polygon fill-rule="evenodd" clip-rule="evenodd" fill="#00534F" points="107.342,59.771 105.211,52.305 100.467,52.305 
		94.365,52.305 89.377,59.771 94.365,67.24 100.467,67.24 105.211,67.24 	"/>
	<polygon fill-rule="evenodd" clip-rule="evenodd" fill="#00534F" points="117.621,59.771 119.754,52.305 124.498,52.305 
		130.6,52.305 135.588,59.771 130.6,67.24 124.498,67.24 119.754,67.24 	"/>
</g>
<g>
	<polygon fill-rule="evenodd" clip-rule="evenodd" fill="#00534F" points="52.268,64.912 59.735,67.043 59.735,71.789 
		59.735,77.891 52.268,82.877 44.8,77.891 44.8,71.789 44.8,67.043 	"/>
	<polygon fill-rule="evenodd" clip-rule="evenodd" fill="#00534F" points="52.268,54.633 59.735,52.502 59.735,47.756 
		59.735,41.655 52.268,36.667 44.8,41.655 44.8,47.756 44.8,52.502 	"/>
	<polygon fill-rule="evenodd" clip-rule="evenodd" fill="#00534F" points="57.407,59.771 59.539,52.305 64.284,52.305 
		70.385,52.305 75.373,59.771 70.385,67.24 64.284,67.24 59.539,67.24 	"/>
	<polygon fill-rule="evenodd" clip-rule="evenodd" fill="#00534F" points="47.128,59.771 44.997,52.305 40.251,52.305 34.15,52.305 
		29.163,59.771 34.15,67.24 40.251,67.24 44.997,67.24 	"/>
</g>
</svg>
