<?xml version="1.0" encoding="utf-8"?>
<!-- Generator: Adobe Illustrator 15.1.0, SVG Export Plug-In . SVG Version: 6.00 Build 0)  -->
<!DOCTYPE svg PUBLIC "-//W3C//DTD SVG 1.1//EN" "http://www.w3.org/Graphics/SVG/1.1/DTD/svg11.dtd">
<svg version="1.1" id="Слой_1" xmlns="http://www.w3.org/2000/svg" xmlns:xlink="http://www.w3.org/1999/xlink" x="0px" y="0px"
	 width="215px" height="177px" viewBox="0 0 215 177" enable-background="new 0 0 215 177" xml:space="preserve">
<g>
	<path fill="#005C58" d="M36.667,0.237l36.881,10.469v52.479L36.667,89.43L-0.215,63.185V10.706L36.667,0.237L36.667,0.237z
		 M36.667,5.363L4.421,14.516v20.377v26.201l32.246,21.418l32.246-21.418V34.893V14.516L36.667,5.363z"/>
	<path fill="#005C58" d="M130.967,0.237l36.883,10.469v52.479L130.967,89.43L94.085,63.185V10.706L130.967,0.237L130.967,0.237z
		 M130.967,5.363l-32.246,9.153v20.377v26.201l32.246,21.418l32.246-21.418V34.893V14.516L130.967,5.363z"/>
	<path fill="#005C58" d="M83.818,177l36.881-10.471v-52.477L83.818,87.807l-36.882,26.246v52.479L83.818,177L83.818,177z
		 M83.818,171.873l-32.246-9.15v-20.379v-26.201l32.246-21.418l32.245,21.418v26.201v20.379L83.818,171.873z"/>
	<path fill="#005C58" d="M178.118,177L215,166.529v-52.477l-36.882-26.247l-36.884,26.247v52.477L178.118,177L178.118,177z
		 M178.118,171.873l-32.246-9.15v-20.379v-26.201l32.246-21.418l32.245,21.418v26.201v20.379L178.118,171.873z"/>
</g>
</svg>
