<?xml version="1.0" encoding="utf-8"?>
<!-- Generator: Adobe Illustrator 15.1.0, SVG Export Plug-In . SVG Version: 6.00 Build 0)  -->
<!DOCTYPE svg PUBLIC "-//W3C//DTD SVG 1.1//EN" "http://www.w3.org/Graphics/SVG/1.1/DTD/svg11.dtd">
<svg version="1.1" id="Слой_1" xmlns="http://www.w3.org/2000/svg" xmlns:xlink="http://www.w3.org/1999/xlink" x="0px" y="0px"
	 width="73px" height="37px" viewBox="0 0 73 37" enable-background="new 0 0 73 37" xml:space="preserve">
<polygon fill="#D1992A" points="0,0 73,0.124 73,28.926 8.277,28.926 0.124,37.079 "/>
<g>
	<path fill="#FFFFFF" d="M17.608,8.168h1.549V21.02h-1.549v-4.801h-6.197v4.801h-1.55V8.168h1.55v6.444h6.197V8.168z"/>
	<path fill="#FFFFFF" d="M30.829,19.109c-0.471,0.714-1.079,1.256-1.825,1.625c-0.746,0.368-1.532,0.553-2.358,0.553
		s-1.61-0.185-2.35-0.553c-0.74-0.369-1.351-0.898-1.833-1.589c-0.402-0.571-0.709-1.258-0.921-2.062s-0.318-1.633-0.318-2.49
		s0.106-1.687,0.318-2.49s0.52-1.491,0.921-2.062c0.47-0.69,1.079-1.22,1.825-1.589C25.033,8.085,25.819,7.9,26.646,7.9
		c0.815,0,1.595,0.185,2.341,0.553c0.746,0.369,1.36,0.904,1.842,1.606c0.39,0.571,0.686,1.252,0.887,2.044
		c0.201,0.792,0.301,1.615,0.301,2.472c0,0.856-0.101,1.684-0.301,2.481C31.514,17.854,31.219,18.539,30.829,19.109z M23.702,18.217
		c0.333,0.5,0.763,0.88,1.291,1.142s1.09,0.393,1.687,0.393c0.585,0,1.142-0.128,1.67-0.384s0.964-0.627,1.309-1.115
		c0.31-0.44,0.545-0.982,0.706-1.625s0.241-1.321,0.241-2.035s-0.081-1.389-0.241-2.026c-0.161-0.636-0.402-1.175-0.723-1.615
		c-0.321-0.488-0.749-0.863-1.282-1.125s-1.093-0.393-1.679-0.393c-0.597,0-1.159,0.131-1.687,0.393s-0.958,0.643-1.291,1.142
		c-0.298,0.429-0.525,0.964-0.68,1.606c-0.155,0.643-0.232,1.315-0.232,2.017c0,0.714,0.077,1.392,0.232,2.035
		C23.177,17.271,23.403,17.801,23.702,18.217z"/>
	<path fill="#FFFFFF" d="M41.39,19.243c-0.35,0.565-0.832,1.003-1.445,1.313c-0.614,0.31-1.306,0.464-2.075,0.464h-3.787V8.168
		h3.942c0.643,0,1.217,0.161,1.722,0.482s0.897,0.747,1.179,1.276c0.281,0.53,0.422,1.092,0.422,1.687
		c0,0.464-0.092,0.914-0.275,1.348c-0.184,0.435-0.459,0.824-0.826,1.169c0.505,0.345,0.909,0.8,1.214,1.365
		c0.304,0.565,0.456,1.158,0.456,1.776C41.915,18.021,41.74,18.679,41.39,19.243z M35.632,9.649v3.891h2.375
		c0.321,0,0.623-0.092,0.904-0.276s0.502-0.425,0.663-0.723c0.16-0.297,0.234-0.613,0.224-0.946
		c0.011-0.333-0.061-0.651-0.216-0.955c-0.154-0.303-0.376-0.544-0.662-0.723c-0.287-0.179-0.592-0.268-0.913-0.268H35.632z
		 M40.09,16.156c-0.195-0.351-0.456-0.627-0.783-0.83c-0.327-0.202-0.668-0.304-1.024-0.304h-2.65v4.516h2.444
		c0.459,0,0.866-0.101,1.223-0.304c0.355-0.202,0.625-0.479,0.809-0.83s0.27-0.729,0.258-1.134
		C40.377,16.878,40.285,16.507,40.09,16.156z"/>
	<path fill="#FFFFFF" d="M52.898,19.109c-0.471,0.714-1.079,1.256-1.825,1.625c-0.746,0.368-1.532,0.553-2.358,0.553
		s-1.609-0.185-2.35-0.553c-0.74-0.369-1.352-0.898-1.834-1.589c-0.401-0.571-0.708-1.258-0.921-2.062
		c-0.212-0.803-0.318-1.633-0.318-2.49s0.106-1.687,0.318-2.49c0.213-0.803,0.52-1.491,0.921-2.062
		c0.471-0.69,1.079-1.22,1.825-1.589C47.103,8.085,47.889,7.9,48.715,7.9c0.814,0,1.595,0.185,2.341,0.553
		c0.746,0.369,1.36,0.904,1.843,1.606c0.39,0.571,0.686,1.252,0.886,2.044c0.201,0.792,0.302,1.615,0.302,2.472
		c0,0.856-0.101,1.684-0.302,2.481C53.584,17.854,53.288,18.539,52.898,19.109z M45.771,18.217c0.332,0.5,0.763,0.88,1.291,1.142
		c0.527,0.262,1.09,0.393,1.687,0.393c0.586,0,1.142-0.128,1.67-0.384s0.964-0.627,1.309-1.115c0.31-0.44,0.545-0.982,0.706-1.625
		c0.16-0.643,0.24-1.321,0.24-2.035s-0.08-1.389-0.24-2.026c-0.161-0.636-0.402-1.175-0.724-1.615
		c-0.321-0.488-0.749-0.863-1.282-1.125c-0.534-0.262-1.093-0.393-1.679-0.393c-0.597,0-1.159,0.131-1.687,0.393
		c-0.528,0.262-0.959,0.643-1.291,1.142c-0.299,0.429-0.525,0.964-0.681,1.606c-0.154,0.643-0.232,1.315-0.232,2.017
		c0,0.714,0.078,1.392,0.232,2.035C45.246,17.271,45.473,17.801,45.771,18.217z"/>
	<path fill="#FFFFFF" d="M63.554,9.774h-5.938v4.016h4.906v1.606h-4.906v4.034h5.938v1.606h-6.369V21.02h-1.033V8.168h7.402V9.774z"
		/>
</g>
</svg>
