<?xml version="1.0" encoding="utf-8"?>
<!-- Generator: Adobe Illustrator 15.1.0, SVG Export Plug-In . SVG Version: 6.00 Build 0)  -->
<!DOCTYPE svg PUBLIC "-//W3C//DTD SVG 1.1//EN" "http://www.w3.org/Graphics/SVG/1.1/DTD/svg11.dtd">
<svg version="1.1" id="Слой_1" xmlns="http://www.w3.org/2000/svg" xmlns:xlink="http://www.w3.org/1999/xlink" x="0px" y="0px"
	 width="250px" height="174px" viewBox="0 0 250 174" enable-background="new 0 0 250 174" xml:space="preserve">
<polygon fill="#025450" points="249.889,59.501 234.739,63.826 234.575,64.406 234.159,64.406 234.159,73.988 234.159,86.842 
	249.889,97.348 250.024,97.258 250.024,59.538 "/>
<polygon fill="#025450" points="249.889,37.847 234.739,33.522 234.575,32.942 234.159,32.942 234.159,23.36 234.159,10.506 
	249.889,0 250.024,0.088 250.024,37.81 "/>
<polygon fill="#025450" points="239.063,48.672 234.575,32.942 224.577,32.942 211.724,32.942 201.219,48.672 211.724,64.406 
	224.577,64.406 234.575,64.406 "/>
<g>
	<polygon fill="#025450" points="123.04,59.501 138.774,63.99 138.774,73.988 138.774,86.842 123.04,97.348 107.311,86.842 
		107.311,73.988 107.311,63.99 	"/>
	<polygon fill="#025450" points="123.04,37.847 138.774,33.356 138.774,23.36 138.774,10.506 123.04,0 107.311,10.506 
		107.311,23.36 107.311,33.356 	"/>
	<polygon fill="#025450" points="133.869,48.672 138.358,32.942 148.353,32.942 161.21,32.942 171.714,48.672 161.21,64.406 
		148.353,64.406 138.358,64.406 	"/>
	<polygon fill="#025450" points="112.215,48.672 107.722,32.942 97.728,32.942 84.875,32.942 74.366,48.672 84.875,64.406 
		97.728,64.406 107.722,64.406 	"/>
</g>
<polygon fill="#025450" points="0.273,97.348 16.007,86.842 16.007,73.988 16.007,64.406 15.591,64.406 15.427,63.826 0.273,59.501 
	"/>
<polygon fill="#025450" points="0.273,0 16.007,10.506 16.007,23.36 16.007,32.942 15.591,32.942 15.427,33.522 0.273,37.847 "/>
<polygon fill="#025450" points="11.102,48.672 15.591,32.942 25.589,32.942 38.443,32.942 48.947,48.672 38.443,64.406 
	25.589,64.406 15.591,64.406 "/>
<g>
	<polygon fill="#025450" points="188.51,136.744 172.775,141.233 172.775,151.231 172.775,164.087 188.51,174.589 204.239,164.087 
		204.239,151.231 204.239,141.233 	"/>
	<polygon fill="#025450" points="188.51,115.09 172.775,110.599 172.775,100.603 172.775,87.751 188.51,77.243 204.239,87.751 
		204.239,100.603 204.239,110.599 	"/>
	<polygon fill="#025450" points="177.681,125.917 173.188,110.188 163.193,110.188 150.34,110.188 139.831,125.917 150.34,141.646 
		163.193,141.646 173.188,141.646 	"/>
	<polygon fill="#025450" points="199.335,125.917 203.823,110.188 213.817,110.188 226.675,110.188 237.18,125.917 226.675,141.646 
		213.817,141.646 203.823,141.646 	"/>
</g>
<g>
	<polygon fill="#025450" points="61.661,136.744 77.39,141.233 77.39,151.231 77.39,164.087 61.661,174.589 45.927,164.087 
		45.927,151.231 45.927,141.233 	"/>
	<polygon fill="#025450" points="61.661,115.09 77.39,110.599 77.39,100.603 77.39,87.751 61.661,77.243 45.927,87.751 
		45.927,100.603 45.927,110.599 	"/>
	<polygon fill="#025450" points="72.486,125.917 76.975,110.188 86.973,110.188 99.822,110.188 110.331,125.917 99.822,141.646 
		86.973,141.646 76.975,141.646 	"/>
	<polygon fill="#025450" points="50.832,125.917 46.343,110.188 36.344,110.188 23.491,110.188 12.982,125.917 23.491,141.646 
		36.344,141.646 46.343,141.646 	"/>
</g>
</svg>
