<?xml version="1.0" encoding="utf-8"?>
<!-- Generator: Adobe Illustrator 15.1.0, SVG Export Plug-In . SVG Version: 6.00 Build 0)  -->
<!DOCTYPE svg PUBLIC "-//W3C//DTD SVG 1.1//EN" "http://www.w3.org/Graphics/SVG/1.1/DTD/svg11.dtd">
<svg version="1.1" id="Слой_1" xmlns="http://www.w3.org/2000/svg" xmlns:xlink="http://www.w3.org/1999/xlink" x="0px" y="0px"
	 width="53px" height="75px" viewBox="0 0 53 75" enable-background="new 0 0 53 75" xml:space="preserve">
<g>
	<path fill-rule="evenodd" clip-rule="evenodd" fill="#CF9112" d="M23.782,11.53l1.197-8.375l-1.346-0.147
		c-0.51-0.056-0.958-0.272-1.342-0.552c-0.393-0.286-0.693-0.644-0.915-1.063C21.155,0.965,21.042,0.504,21.042,0l0,0h10.917l0,0
		c-0.008,0.504-0.121,0.965-0.342,1.392c-0.223,0.419-0.521,0.777-0.914,1.063c-0.385,0.28-0.832,0.501-1.343,0.552l-1.458,0.147
		l1.33,8.381l-2.735-0.539L23.782,11.53z"/>
	<path fill-rule="evenodd" clip-rule="evenodd" fill="#CF9112" d="M26.499,11.892L53,19.299v37.133L26.499,75L0,56.432V19.299
		L26.499,11.892L26.499,11.892z M26.501,15.518L3.33,21.994v14.419v18.538l23.171,15.156l23.168-15.156V36.413V21.994L26.501,15.518
		z"/>
	<polygon fill-rule="evenodd" clip-rule="evenodd" fill="#CF9112" points="26.499,8.425 40.794,12.42 37.907,15.241 26.499,12.051 
		15.092,15.241 12.206,12.42 	"/>
	<path fill-rule="evenodd" clip-rule="evenodd" fill="#CF9112" d="M17.242,50.691l-0.624-0.096V42.93v-2.418V32.64l0.607-0.112
		c0.389-0.064,0.733-0.208,1.035-0.428c0.301-0.221,0.536-0.499,0.711-0.826c0.17-0.328,0.257-0.681,0.263-1.067h-8.359
		c0.006,0.386,0.093,0.74,0.263,1.067c0.169,0.327,0.4,0.605,0.701,0.826c0.296,0.22,0.64,0.364,1.029,0.428l0.607,0.112v17.956
		l-0.624,0.096c-0.384,0.064-0.723,0.209-1.019,0.43c-0.295,0.219-0.526,0.492-0.695,0.82c-0.169,0.32-0.257,0.676-0.263,1.055
		h8.359c-0.006-0.379-0.093-0.734-0.263-1.055c-0.175-0.328-0.41-0.602-0.706-0.82C17.964,50.9,17.625,50.756,17.242,50.691
		L17.242,50.691z M40.147,50.691l-0.624-0.096V32.64l0.607-0.112c0.387-0.071,0.733-0.209,1.029-0.428
		c0.3-0.221,0.531-0.499,0.701-0.826c0.169-0.328,0.257-0.681,0.263-1.067h-2.601h-3.142h-2.617l0,0
		c0.006,0.386,0.096,0.738,0.269,1.067c0.171,0.325,0.405,0.605,0.706,0.826c0.301,0.22,0.646,0.357,1.035,0.428l0.607,0.112v7.872
		h-8.484v2.418h8.484v7.666l-0.625,0.096c-0.389,0.059-0.732,0.211-1.028,0.43c-0.3,0.221-0.53,0.494-0.701,0.82
		c-0.168,0.32-0.257,0.676-0.263,1.055l0,0h8.359c-0.006-0.379-0.097-0.732-0.263-1.055c-0.169-0.326-0.401-0.602-0.696-0.82
		C40.87,50.9,40.531,50.756,40.147,50.691L40.147,50.691z M25.319,40.512v2.418h-7.821v-0.564c0-0.346,0.095-0.658,0.263-0.938
		c0.165-0.277,0.393-0.502,0.678-0.664c0.283-0.164,0.603-0.252,0.953-0.252H25.319z"/>
	<path fill-rule="evenodd" clip-rule="evenodd" fill="#CF9112" d="M26.499,65.271l-2.47-7.029l-0.05-35.811l-6.489,1.814l0,0
		c-0.065,0.649-0.276,1.22-0.627,1.729c-0.356,0.509-0.815,0.914-1.369,1.207c-0.562,0.3-1.188,0.446-1.867,0.453h-0.021v-5.451
		c0.007-0.313,0.118-0.57,0.335-0.781c0.213-0.207,0.501-0.233,0.817-0.321l11.205-3.12l0.537,42.042l0.538-42.059l11.205,3.137
		c0.315,0.089,0.603,0.114,0.817,0.321c0.217,0.211,0.327,0.468,0.335,0.781v5.451l0,0c-0.679-0.007-1.306-0.153-1.866-0.453
		c-0.568-0.292-1.027-0.697-1.393-1.207c-0.357-0.508-0.576-1.08-0.648-1.729l0,0l-6.469-1.82l-0.048,35.816L26.499,65.271z"/>
</g>
</svg>
